<svg width="14" height="14" viewBox="0 0 14 14" fill="none" xmlns="http://www.w3.org/2000/svg">
<path d="M1.65625 3H0.34375V12.3438C0.34375 13.0625 0.9375 13.6562 1.65625 13.6562H11V12.3438H1.65625V3ZM12.3438 0.34375H4.34375C3.59375 0.34375 3 0.9375 3 1.65625V9.65625C3 10.4062 3.59375 11 4.34375 11H12.3438C13.0625 11 13.6562 10.4062 13.6562 9.65625V1.65625C13.6562 0.9375 13.0625 0.34375 12.3438 0.34375ZM12.3438 9.65625H4.34375V1.65625H12.3438V9.65625ZM5.65625 5H11V6.34375H5.65625V5ZM5.65625 7H8.34375V8.34375H5.65625V7ZM5.65625 3H11V4.34375H5.65625V3Z" fill="white"/>
</svg>
