<svg width="15" height="15" viewBox="0 0 15 15" fill="none" xmlns="http://www.w3.org/2000/svg">
<path d="M10.875 0.75C9.57422 0.75 8.30859 1.34766 7.5 2.33203C6.69141 1.34766 5.42578 0.75 4.125 0.75C1.80469 0.75 0.0117188 2.57812 0.0117188 4.86328C0.0117188 7.71094 2.54297 10.0312 6.41016 13.5469L7.5 14.4961L8.58984 13.5117C12.457 10.0312 14.9883 7.71094 14.9883 4.86328C14.9883 2.57812 13.1953 0.75 10.875 0.75ZM7.57031 12.4219L7.5 12.4922L7.42969 12.4219C3.84375 9.1875 1.48828 7.04297 1.48828 4.86328C1.48828 3.38672 2.61328 2.26172 4.125 2.26172C5.28516 2.26172 6.41016 3 6.79688 4.01953H8.20312C8.58984 3 9.71484 2.26172 10.875 2.26172C12.3867 2.26172 13.5117 3.38672 13.5117 4.86328C13.5117 7.04297 11.1562 9.1875 7.57031 12.4219Z" fill="white"/>
</svg>
