<svg width="16" height="22" viewBox="0 0 16 22" fill="none" xmlns="http://www.w3.org/2000/svg">
<path d="M10.5201 22C9.04813 22 7.97609 21.622 7.30242 20.8659C6.62963 20.1102 6.29279 19.2952 6.29279 18.4217C6.29279 18.1024 6.35136 17.8337 6.4688 17.6152C6.58343 17.3999 6.74967 17.2214 6.95053 17.0985C7.15399 16.9724 7.40437 16.9096 7.7021 16.9096C7.99969 16.9096 8.24978 16.9724 8.45353 17.0985C8.65699 17.2244 8.81759 17.3969 8.93489 17.6152C9.05233 17.8337 9.11098 18.1024 9.11098 18.4217C9.11098 18.8082 9.02496 19.1229 8.85278 19.3667C8.68031 19.6103 8.47685 19.7697 8.24196 19.8457C8.44586 20.1477 8.76676 20.3619 9.20511 20.4879C9.64345 20.6225 10.0818 20.6896 10.5201 20.6896C11.1307 20.6896 11.6825 20.5132 12.1759 20.1606C12.669 19.8075 13.0332 19.2869 13.2681 18.5981C13.503 17.9094 13.6204 17.128 13.6204 16.2542C13.6204 15.3051 13.491 14.4942 13.2329 13.8225C12.9821 13.1421 12.6104 12.638 12.1171 12.3103C11.639 11.9874 11.0851 11.8171 10.5201 11.8191C10.1442 11.8191 9.67488 11.9871 9.11098 12.3232L8.0776 12.8775V12.3232L12.7278 5.67021H6.29279V12.5748C6.29279 13.1462 6.41024 13.6166 6.64512 13.9863C6.88001 14.356 7.24001 14.5407 7.72571 14.5407C8.10091 14.5407 8.46135 14.4064 8.80586 14.1372C9.15268 13.8659 9.45433 13.5338 9.69819 13.155C9.72947 13.0788 9.76871 13.0243 9.81563 12.9907C9.85777 12.9507 9.91193 12.9285 9.96827 12.9279C10.0543 12.9279 10.1559 12.9741 10.2737 13.0667C10.3833 13.2007 10.438 13.3562 10.438 13.5326C10.4246 13.6514 10.4049 13.7692 10.3791 13.8856C10.1132 14.524 9.74511 15.0111 9.27534 15.347C8.81802 15.6791 8.27773 15.8548 7.72571 15.8512C6.33195 15.8512 5.36884 15.5571 4.83665 14.9694C4.30447 14.381 4.03822 13.5829 4.03822 12.5752V5.67021H0.75V4.38475H4.03822V1.46182L3.28669 0.654721V0H5.47074L6.29247 0.453375V4.38475L14.7944 4.35975L15.6401 5.26682L10.4263 10.8614C10.742 10.7263 11.0743 10.6415 11.4128 10.6093C11.9764 10.6093 12.6104 10.8026 13.315 11.1891C14.0275 11.567 14.5755 12.0881 14.9588 12.7512C15.3425 13.4066 15.589 14.0367 15.6988 14.6414C15.8162 15.2465 15.875 15.7838 15.875 16.2542C15.875 17.3297 15.6634 18.329 15.2409 19.2535C14.8182 20.1772 14.1762 20.8659 13.315 21.3197C12.4538 21.7734 11.5221 22 10.5201 22Z" fill="#2C7DF7"/>
</svg>
