<svg width="137" height="31" viewBox="0 0 137 31" fill="none" xmlns="http://www.w3.org/2000/svg">
<mask id="mask0_1_639" style="mask-type:luminance" maskUnits="userSpaceOnUse" x="26" y="4" width="101" height="23">
<path d="M126.99 4.91724H26.7997V26.0828H126.99V4.91724Z" fill="white"/>
</mask>
<g mask="url(#mask0_1_639)">
<path fill-rule="evenodd" clip-rule="evenodd" d="M26.8197 20.8576L33.5716 5.75317C33.6827 5.50401 33.8657 5.29218 34.0979 5.14366C34.33 4.99516 34.6014 4.91646 34.8785 4.91723H39.0821L46.1652 20.8619C46.1807 20.8949 46.1874 20.9312 46.1848 20.9674C46.1822 21.0036 46.17 21.0385 46.1497 21.0689C46.1295 21.0993 46.1016 21.1241 46.0689 21.141C46.0362 21.1579 45.9997 21.1663 45.9626 21.1655H42.7718C42.7293 21.1657 42.6877 21.1536 42.652 21.1308C42.6165 21.108 42.5884 21.0755 42.5714 21.0372L41.1557 18.0399C41.1382 18.002 41.1101 17.9699 41.0746 17.9475C41.0389 17.9252 40.9975 17.9134 40.9553 17.9137H32.0644C32.0222 17.9134 31.9808 17.9252 31.9451 17.9475C31.9096 17.9699 31.8815 18.002 31.864 18.0399L30.4483 21.0308C30.4313 21.0691 30.4032 21.1016 30.3677 21.1244C30.332 21.1472 30.2904 21.1592 30.2479 21.1591H27.0222C26.9854 21.1597 26.9493 21.1513 26.9168 21.1345C26.8843 21.1177 26.8567 21.0931 26.8364 21.0631C26.8162 21.033 26.8042 20.9984 26.8011 20.9625C26.7983 20.9266 26.8046 20.8905 26.8197 20.8576ZM39.4698 15.0318C39.5062 15.0323 39.5421 15.0238 39.5744 15.0071C39.6066 14.9904 39.6341 14.9661 39.6541 14.9363C39.6744 14.9065 39.6865 14.8723 39.6898 14.8367C39.6929 14.8011 39.687 14.7652 39.6724 14.7325L36.7233 7.81627C36.7067 7.77689 36.6786 7.74324 36.6427 7.71963C36.6066 7.69601 36.5641 7.6835 36.5207 7.68372C36.4774 7.6835 36.4349 7.69601 36.3988 7.71963C36.3628 7.74324 36.3347 7.77689 36.3182 7.81627L33.3691 14.7325C33.3554 14.7643 33.3497 14.7989 33.3525 14.8334C33.3554 14.8679 33.3667 14.9012 33.3856 14.9304C33.4044 14.9596 33.4301 14.9839 33.4608 15.0012C33.4913 15.0185 33.5255 15.0283 33.5608 15.0296L33.5716 15.0318H39.4698ZM47.7099 26.0828C47.6519 26.0828 47.5964 26.0603 47.5557 26.0201C47.5147 25.9799 47.4916 25.9254 47.4916 25.8687V11.0118C47.4962 10.6954 47.6286 10.3937 47.8599 10.173C48.091 9.9523 48.4023 9.83056 48.7248 9.83456H55.1268C57.2021 9.83456 58.8217 10.3219 59.9859 11.2965C61.1498 12.2711 61.649 13.641 61.649 15.4874C61.649 17.3496 61.1498 18.8086 59.9859 19.7833C58.8217 20.7578 57.2021 21.1595 55.1268 21.1595H50.9796V25.8687C50.9796 25.9254 50.9567 25.9799 50.9158 26.0201C50.8748 26.0603 50.8193 26.0828 50.7613 26.0828H47.7099ZM55.1268 12.3817H50.9796V18.6959H55.1268C56.1353 18.6959 56.9065 18.4341 57.4406 17.9104C57.9746 17.3867 58.2417 16.5926 58.2417 15.5281C58.2417 14.4793 57.9746 13.6945 57.4406 13.1736C56.9065 12.6528 56.1353 12.3888 55.1268 12.3817ZM64.8752 19.7035C66.0095 20.6782 67.5901 21.1655 69.6168 21.1655H72.1947C74.2214 21.1655 75.8021 20.6782 76.9364 19.7035C78.0707 18.7289 78.6379 17.296 78.6379 15.4048C78.6379 13.498 78.0707 12.0573 76.9364 11.0826C75.8021 10.108 74.2214 9.62068 72.1947 9.62068H69.6168C67.5901 9.61927 66.0095 10.1066 64.8752 11.0826C63.7408 12.0587 63.1737 13.4994 63.1737 15.4048C63.1737 17.296 63.7408 18.7289 64.8752 19.7035ZM72.1947 18.6368H69.6168V18.6326C68.6343 18.6368 67.8822 18.3747 67.361 17.8464C66.8396 17.3179 66.5788 16.5041 66.5788 15.4048C66.5788 14.2885 66.8396 13.4668 67.361 12.9398C67.8822 12.4129 68.6349 12.1494 69.619 12.1494H72.1969C73.1781 12.148 73.93 12.4115 74.4527 12.9398C74.9755 13.4683 75.2371 14.2899 75.2371 15.4048C75.234 16.5055 74.972 17.3194 74.4506 17.8464C73.9294 18.3733 73.1773 18.6368 72.1947 18.6368ZM99.4562 21.1655C97.4295 21.1655 95.8489 20.6782 94.7146 19.7035C93.5803 18.7289 93.0131 17.296 93.0131 15.4048C93.0131 13.4994 93.5803 12.0587 94.7146 11.0826C95.8489 10.1066 97.4295 9.61927 99.4562 9.62068H102.034C104.061 9.62068 105.641 10.108 106.776 11.0826C107.91 12.0573 108.477 13.498 108.477 15.4048C108.477 17.296 107.91 18.7289 106.776 19.7035C105.641 20.6782 104.061 21.1655 102.034 21.1655H99.4562ZM99.4562 18.6368H102.034C103.017 18.6368 103.769 18.3733 104.29 17.8464C104.811 17.3194 105.073 16.5055 105.076 15.4048C105.076 14.2899 104.815 13.4683 104.292 12.9398C103.769 12.4115 103.018 12.148 102.036 12.1494H99.4584C98.4744 12.1494 97.7216 12.4129 97.2004 12.9398C96.679 13.4668 96.4183 14.2885 96.4183 15.4048C96.4183 16.5041 96.679 17.3179 97.2004 17.8464C97.7216 18.3747 98.4737 18.6368 99.4562 18.6326V18.6368ZM87.4139 21.1032C87.4547 21.1431 87.5102 21.1655 87.5679 21.1655H90.6172C90.6749 21.1655 90.7305 21.1431 90.7712 21.1032C90.8122 21.0633 90.835 21.0092 90.835 20.9528V4.91835H88.657C88.3248 4.90451 88.0007 5.0199 87.7557 5.23921C87.5107 5.45849 87.3649 5.76377 87.3501 6.08797V20.9528C87.3501 21.0092 87.373 21.0633 87.4139 21.1032ZM81.0338 21.1655C80.976 21.1655 80.9205 21.1431 80.8798 21.1032C80.8388 21.0633 80.816 21.0092 80.816 20.9528V6.08797C80.8305 5.76377 80.9765 5.45849 81.2215 5.23921C81.4665 5.0199 81.7906 4.90451 82.1228 4.91835H84.3008V20.9528C84.3008 21.0092 84.278 21.0633 84.237 21.1032C84.1963 21.1431 84.1408 21.1655 84.083 21.1655H81.0338ZM114.536 13.4082L109.784 21.1655H113.501L117.52 15.1519C117.606 15.0235 117.718 14.9191 117.848 14.8471C117.978 14.7751 118.121 14.7375 118.266 14.7372H118.501C118.646 14.7375 118.79 14.7751 118.919 14.8471C119.049 14.9191 119.162 15.0235 119.248 15.1519L123.267 21.1655H126.991L122.243 13.4082C122.122 13.2325 122.057 13.0187 122.057 12.799C122.057 12.5792 122.122 12.3654 122.243 12.1897L126.991 4.91723H123.292L119.253 10.9521C119.169 11.0827 119.057 11.1893 118.927 11.2632C118.797 11.3372 118.653 11.3763 118.507 11.3774H118.272C118.126 11.3763 117.982 11.3372 117.852 11.2632C117.722 11.1893 117.61 11.0827 117.525 10.9521L113.487 4.91723H109.784L114.536 12.1897C114.656 12.3657 114.721 12.5794 114.721 12.799C114.721 13.0185 114.656 13.2322 114.536 13.4082Z" fill="#E5D4FB"/>
</g>
<path fill-rule="evenodd" clip-rule="evenodd" d="M19.7796 9.60984C18.2515 13.0611 15.7519 16.0112 12.5753 18.1125C9.39879 20.2139 5.67758 21.3789 1.85003 21.4706C1.05787 20.3131 0.50536 19.0136 0.224041 17.6463C-0.0572768 16.279 -0.0619164 14.8706 0.210407 13.5015C0.482729 12.1324 1.02668 10.8294 1.81119 9.66699C2.59571 8.50457 3.60542 7.50545 4.78268 6.72667C5.95996 5.94788 7.28172 5.40468 8.67252 5.12812C10.0633 4.85153 11.4959 4.84698 12.8885 5.11469C14.2811 5.38242 15.6064 5.91721 16.7887 6.68849C17.9711 7.45977 18.9874 8.45245 19.7796 9.60984ZM20.4833 9.54371V8.2266C20.4835 8.21294 20.487 8.19953 20.494 8.18782C20.5007 8.17608 20.5108 8.16646 20.5223 8.15992L21.6778 7.49303C21.6893 7.48628 21.7022 7.48273 21.7154 7.48275C21.7285 7.48277 21.7414 7.48632 21.7529 7.4931C21.7642 7.49985 21.7736 7.50958 21.7801 7.52127C21.7867 7.53297 21.7901 7.54622 21.7901 7.55971V8.87683C21.7899 8.8903 21.7864 8.90351 21.7799 8.9152C21.7734 8.92688 21.764 8.93663 21.7527 8.94351L20.5957 9.6104C20.5842 9.61715 20.5713 9.6207 20.558 9.62068C20.545 9.62066 20.5321 9.61711 20.5206 9.61033C20.5092 9.60358 20.4999 9.59385 20.4933 9.58215C20.4868 9.57046 20.4833 9.5572 20.4833 9.54371ZM19.5539 21.6427C20.8664 19.8387 21.5723 17.6762 21.5723 15.4582C21.5728 13.8236 21.1875 12.2111 20.4467 10.7477C17.0714 15.0358 14.9319 20.1378 14.2528 25.5185C16.3878 24.8019 18.2414 23.4467 19.5539 21.6427Z" fill="url(#paint0_linear_1_639)"/>
<defs>
<linearGradient id="paint0_linear_1_639" x1="-8.68745" y1="11.1517" x2="32.839" y2="29.7715" gradientUnits="userSpaceOnUse">
<stop stop-color="#E5D4FB"/>
<stop offset="1" stop-color="#4B3CFF"/>
</linearGradient>
</defs>
</svg>
