<svg width="16" height="16" viewBox="0 0 16 16" fill="none" xmlns="http://www.w3.org/2000/svg">
<path d="M7.76655 1.56668L4.23989 5.09335C4.10656 5.22668 4.10656 5.43335 4.23989 5.56668L5.09989 6.42668C5.23322 6.56001 5.43989 6.56001 5.57323 6.42668L7.76655 4.23335C7.89989 4.10001 8.10656 4.10001 8.23989 4.23335L10.4332 6.42668C10.5666 6.56001 10.7732 6.56001 10.9066 6.42668L11.7666 5.56668C11.8999 5.43335 11.8999 5.22668 11.7666 5.09335L8.23989 1.56668C8.10656 1.44001 7.89322 1.44001 7.76655 1.56668Z" fill="#F0A500"/>
<path d="M7.76655 14.4334L4.23989 10.9067C4.10656 10.7734 4.10656 10.5667 4.23989 10.4334L5.09989 9.57339C5.23322 9.44006 5.43989 9.44006 5.57323 9.57339L7.76655 11.7667C7.89989 11.9001 8.10656 11.9001 8.23989 11.7667L10.4332 9.57339C10.5666 9.44006 10.7732 9.44006 10.9066 9.57339L11.7666 10.4334C11.8999 10.5667 11.8999 10.7734 11.7666 10.9067L8.23989 14.4334C8.10656 14.5601 7.89322 14.5601 7.76655 14.4334Z" fill="#F0A500"/>
<path d="M13.4 6.73331L14.4267 7.75997C14.56 7.89331 14.56 8.09997 14.4267 8.23331L13.4 9.25997C13.2667 9.39331 13.06 9.39331 12.9267 9.25997L11.9 8.23331C11.7667 8.09997 11.7667 7.89331 11.9 7.75997L12.9267 6.73331C13.06 6.60664 13.2734 6.60664 13.4 6.73331Z" fill="#F0A500"/>
<path d="M3.0668 6.73331L4.09346 7.75997C4.22679 7.89331 4.22679 8.09997 4.09346 8.23331L3.0668 9.25997C2.93346 9.39331 2.72679 9.39331 2.59346 9.25997L1.5668 8.23331C1.43346 8.09997 1.43346 7.89331 1.5668 7.75997L2.59346 6.73331C2.72679 6.60664 2.94013 6.60664 3.0668 6.73331Z" fill="#F0A500"/>
<path d="M8.23332 6.58669L9.41331 7.76669C9.54665 7.90003 9.54665 8.10669 9.41331 8.24003L8.23332 9.42003C8.09999 9.55336 7.89332 9.55336 7.75998 9.42003L6.57998 8.24003C6.44665 8.10669 6.44665 7.90003 6.57998 7.76669L7.75998 6.58669C7.89332 6.45336 8.10665 6.45336 8.23332 6.58669Z" fill="#F0A500"/>
</svg>
