<svg width="19" height="19" viewBox="0 0 19 19" fill="none" xmlns="http://www.w3.org/2000/svg">
<path d="M9.02492 18.0104H6.01659C2.54117 18.0104 0.989502 16.4587 0.989502 12.9833V9.97496C0.989502 6.49954 2.54117 4.94788 6.01659 4.94788H8.39159C8.71617 4.94788 8.98534 5.21704 8.98534 5.54163C8.98534 5.86621 8.71617 6.13538 8.39159 6.13538H6.01659C3.18242 6.13538 2.177 7.14079 2.177 9.97496V12.9833C2.177 15.8175 3.18242 16.8229 6.01659 16.8229H9.02492C11.8591 16.8229 12.8645 15.8175 12.8645 12.9833V10.6083C12.8645 10.2837 13.1337 10.0145 13.4583 10.0145C13.7828 10.0145 14.052 10.2837 14.052 10.6083V12.9833C14.052 16.4587 12.5003 18.0104 9.02492 18.0104Z" fill="#ECDDFF"/>
<path d="M13.4583 11.2021H10.9249C8.70035 11.2021 7.79785 10.2996 7.79785 8.07501V5.54168C7.79785 5.30418 7.94035 5.08251 8.16202 4.99543C8.38368 4.90043 8.63702 4.95584 8.81118 5.12209L13.8779 10.1888C14.0441 10.355 14.0995 10.6163 14.0045 10.8379C13.9174 11.0596 13.6958 11.2021 13.4583 11.2021ZM8.98535 6.97459V8.07501C8.98535 9.65043 9.34952 10.0146 10.9249 10.0146H12.0254L8.98535 6.97459Z" fill="#ECDDFF"/>
<path d="M12.35 2.17712H9.18335C8.85877 2.17712 8.5896 1.90796 8.5896 1.58337C8.5896 1.25879 8.85877 0.989624 9.18335 0.989624H12.35C12.6746 0.989624 12.9438 1.25879 12.9438 1.58337C12.9438 1.90796 12.6746 2.17712 12.35 2.17712Z" fill="#ECDDFF"/>
<path d="M5.54175 4.55212C5.21716 4.55212 4.948 4.28296 4.948 3.95837C4.948 2.31962 6.278 0.989624 7.91675 0.989624H9.99091C10.3155 0.989624 10.5847 1.25879 10.5847 1.58337C10.5847 1.90796 10.3155 2.17712 9.99091 2.17712H7.91675C6.93508 2.17712 6.1355 2.97671 6.1355 3.95837C6.1355 4.28296 5.86633 4.55212 5.54175 4.55212Z" fill="#ECDDFF"/>
<path d="M15.1921 14.0521C14.8676 14.0521 14.5984 13.783 14.5984 13.4584C14.5984 13.1338 14.8676 12.8646 15.1921 12.8646C16.0946 12.8646 16.823 12.1284 16.823 11.2338V6.33337C16.823 6.00879 17.0921 5.73962 17.4167 5.73962C17.7413 5.73962 18.0105 6.00879 18.0105 6.33337V11.2338C18.0105 12.7855 16.7438 14.0521 15.1921 14.0521Z" fill="#ECDDFF"/>
<path d="M17.4167 6.92705H15.0417C12.9359 6.92705 12.073 6.06414 12.073 3.9583V1.5833C12.073 1.3458 12.2155 1.12414 12.4372 1.03705C12.6588 0.942054 12.9122 0.997471 13.0863 1.16372L17.8363 5.91372C18.0026 6.07997 18.058 6.34122 17.963 6.56289C17.8759 6.78455 17.6542 6.92705 17.4167 6.92705ZM13.2605 3.01622V3.9583C13.2605 5.40705 13.593 5.73955 15.0417 5.73955H15.9838L13.2605 3.01622Z" fill="#ECDDFF"/>
</svg>
