
        <svg xmlns="http://www.w3.org/2000/svg" xmlns:xlink="http://www.w3.org/1999/xlink" version="1.1" width="3176.4705882352937" 
        height="2208.0270249132677" viewBox="0 0 3176.4705882352937 2208.0270249132677">
			
			<g transform="scale(8.823529411764707) translate(10, 10)">
				<defs id="SvgjsDefs126030"><linearGradient id="SvgjsLinearGradient126037"><stop id="SvgjsStop126038" stop-color="#8f5e25" offset="0"></stop><stop id="SvgjsStop126039" stop-color="#fbf4a1" offset="0.5"></stop><stop id="SvgjsStop126040" stop-color="#8f5e25" offset="1"></stop></linearGradient><linearGradient id="SvgjsLinearGradient126041"><stop id="SvgjsStop126042" stop-color="#616161" offset="0"></stop><stop id="SvgjsStop126043" stop-color="#e6e7e8" offset="0.5"></stop><stop id="SvgjsStop126044" stop-color="#616161" offset="1"></stop></linearGradient><linearGradient id="SvgjsLinearGradient126045"><stop id="SvgjsStop126046" stop-color="#616161" offset="0"></stop><stop id="SvgjsStop126047" stop-color="#e6e7e8" offset="0.5"></stop><stop id="SvgjsStop126048" stop-color="#616161" offset="1"></stop></linearGradient></defs><g id="SvgjsG126031" featureKey="symbolFeature-0" transform="matrix(1.6346788706567374,0,0,1.6346788706567374,88.31719532977178,-19.23036213463298)" fill="url(#SvgjsLinearGradient126037)"><g xmlns="http://www.w3.org/2000/svg"><path d="M49.999,11.764c-17.15,0-31.538,12.018-35.207,28.073l2.666-0.3c3.721-14.498,16.9-25.245,32.541-25.245   c18.523,0,33.594,15.07,33.594,33.594c0,4.663-0.957,9.106-2.683,13.146h2.724c1.6-4.077,2.488-8.51,2.488-13.146   C86.122,27.967,69.917,11.764,49.999,11.764"></path><path d="M13.897,47.076c-0.006,0.27-0.021,0.538-0.021,0.81c0,10.479,4.489,19.928,11.644,26.533l0.601-2.934   c-5.773-5.839-9.418-13.777-9.688-22.552L13.897,47.076z"></path><path d="M62.507,66.985l-3.825-11.933l12.261-11.204l3.854-3.523l-5.223-0.021l-16.605-0.063L46.101,25.12l-2.158-4.755   l-1.634,4.96L37.115,41.1l-16.502,1.858l-5.188,0.584l4.211,3.084l13.396,9.814L29.7,72.71l-1.049,5.115l4.238-3.052l13.473-9.71   l10.104,5.734l-12.8,8.082c-0.035,0.027-0.074,0.061-0.11,0.09c-0.77,0.69-0.833,1.874-0.141,2.646   c0.688,0.77,1.871,0.833,2.642,0.142l0.019-0.015l12.638-9.668l2.091,1.188l1.106,0.629l-7.818,5.078   c-0.028,0.024-0.06,0.049-0.087,0.075c-0.606,0.561-0.645,1.511-0.082,2.117c0.562,0.608,1.511,0.645,2.118,0.083l0.015-0.014   l7.757-6.263l1.533,0.871l-0.537-1.675l13.677-11.043l-14.249,9.258l-0.485-1.513l-0.68-2.123l15.833-12.109L62.507,66.985z    M46.231,62.646L31.697,73.119l3.595-17.548L20.84,44.983l17.803-2.003l5.602-17.017l7.408,16.311l17.913,0.069L56.34,54.431   l5.472,17.059L46.231,62.646z"></path><polygon points="63.917,44.524 50.231,44.47 44.572,32.008 40.291,45.01 26.691,46.54 37.732,54.628 34.984,68.036 46.09,60.035    57.994,66.79 53.814,53.758  "></polygon></g></g><g id="SvgjsG126032" featureKey="nameFeature-0" transform="matrix(2.3032888754371594,0,0,2.3032888754371594,-8.660363953090402,104.50445361980556)" fill="url(#SvgjsLinearGradient126041)"><path d="M8.64 13.600000000000001 c0.2 0 0.36 0.16 0.36 0.36 l0 21 l8.64 0 c0.2 0 0.36 0.16 0.36 0.36 l0 4.32 c0 0.2 -0.16 0.36 -0.36 0.36 l-13.56 0 c-0.2 0 -0.32 -0.16 -0.32 -0.36 l0 -25.68 c0 -0.2 0.12 -0.36 0.32 -0.36 l4.56 0 z M6.16 16.04 l0 21.52 c0 0.08 0.08 0.2 0.24 0.2 l9.24 0 c0.32 0 0.32 -0.52 0 -0.52 l-9.04 0 l0 -21.2 c0 -0.28 -0.44 -0.32 -0.44 0 z M41.563 30.759999999999998 l0 -16.8 c0 -0.2 0.16 -0.36 0.36 -0.36 l4.56 0 c0.2 0 0.36 0.16 0.36 0.36 l0 18.08 c0 5.76 -3.16 8.36 -9.12 8.36 c-5.64 0 -9.16 -2.24 -9.16 -8.36 l0 -18.08 c0 -0.2 0.16 -0.36 0.36 -0.36 l4.6 0 c0.2 0 0.36 0.16 0.36 0.36 l0 16.8 c0 3.48 1.96 4.24 3.6 4.24 l0.48 0 c2.48 0 3.6 -1.68 3.6 -4.24 z M31.043 16.16 l0 15.56 c0 3.6 2.44 6.2 6.24 6.2 l1 0 c3.8 0 6.28 -2.72 6.28 -6.2 l0 -15.56 c0 -0.36 -0.48 -0.4 -0.48 0 l0 15.56 c0 3.28 -2.36 5.68 -5.8 5.68 l-1 0 c-3.36 0 -5.76 -2.16 -5.76 -5.68 l0 -15.56 c0 -0.36 -0.48 -0.36 -0.48 0 z M71.806 30.759999999999998 l0 -1.24 c0 -0.2 0.16 -0.36 0.36 -0.36 l4.56 0 c0.2 0 0.36 0.16 0.36 0.36 l0 2.52 c0 5.88 -3.16 8.36 -9.12 8.36 c-5.56 0 -9.2 -2.2 -9.2 -8.36 l0 -10.52 c0 -5.92 3.24 -8.28 9.2 -8.28 c5.64 0 9.12 2.16 9.12 8.28 l0 0.84 c0 0.2 -0.16 0.36 -0.36 0.36 l-4.6 0 c-0.2 0 -0.36 -0.16 -0.36 -0.36 l0 -0.64 c0 -2.2 -1.64 -3.12 -3.6 -3.12 l-0.48 0 c-1.32 0 -2.2 0.36 -2.8 1.16 c-0.56 0.76 -0.76 1.76 -0.76 3.08 l0 7.92 c0 3.48 1.96 4.24 3.56 4.24 l0.48 0 c2.52 0 3.56 -1.68 3.64 -4.24 z M67.886 15.719999999999999 c-4.28 0 -6.76 1.52 -6.76 6.4 l0 9.64 c0 4.44 2.28 6.08 6.76 6.08 c4.2 0 6.72 -1.52 6.72 -6.12 c0 -0.32 -0.48 -0.32 -0.48 0 c0 4.04 -2.2 5.68 -6.24 5.68 c-3.92 0 -6.32 -1.36 -6.32 -5.64 l0 -9.64 c0 -4.16 1.96 -5.96 6.32 -5.96 c5.68 0 5.88 3.6 5.88 4 c0 0.36 0.56 0.4 0.56 0 c0 -3.32 -3.36 -4.44 -6.44 -4.44 z M105.889 13.600000000000001 c0.28 0 0.44 0.32 0.28 0.56 l-6.28 8.68 l6.64 16.72 c0.08 0.2 -0.04 0.44 -0.32 0.44 l-5.4 0 c-0.12 0 -0.24 -0.08 -0.28 -0.24 l-4.16 -11.96 l-2.04 2.8 l0 9.04 c0 0.2 -0.16 0.36 -0.36 0.36 l-4.56 0 c-0.2 0 -0.32 -0.16 -0.32 -0.36 l0 -25.68 c0 -0.2 0.12 -0.36 0.32 -0.36 l4.56 0 c0.2 0 0.36 0.16 0.36 0.36 l0 8.28 l6.28 -8.48 c0.12 -0.16 0.16 -0.16 0.32 -0.16 l4.96 0 z M91.48899999999999 16 l0 21.56 c0 0.28 0.44 0.28 0.44 0 l0 -7.76 l5 -6.64 l5.6 14.48 c0.08 0.2 0.56 0.08 0.44 -0.24 l-5.68 -14.76 l5.2 -6.92 c0.2 -0.2 -0.16 -0.56 -0.4 -0.32 l-10.16 13.6 l0 -13 c0 -0.28 -0.44 -0.28 -0.44 0 z M120.572 13.8 l3.48 6.72 l3.4 -6.72 c0.12 -0.2 0.16 -0.2 0.32 -0.2 l4.48 0 c0.24 0 0.4 0.24 0.32 0.44 l-5.8 13.48 l0 12.12 c0 0.2 -0.16 0.36 -0.36 0.36 l-4.72 0 c-0.12 0 -0.28 -0.16 -0.28 -0.36 l0 -12.12 l-5.96 -13.4 c-0.08 -0.28 0.04 -0.52 0.32 -0.52 l4.48 0 c0.16 0 0.2 0 0.32 0.2 z M124.252 26.6 l5 -10.4 c0.12 -0.24 -0.28 -0.44 -0.44 -0.16 l-4.76 9.96 l-4.88 -9.96 c-0.16 -0.28 -0.6 -0.08 -0.48 0.2 l5.12 10.36 l0 11.04 c0 0.28 0.44 0.32 0.44 0 l0 -11.04 z M143.095 17.92 l2.88 -4.08 c0.16 -0.2 0.32 -0.2 0.4 -0.2 l4.68 0 c0.2 0 0.32 0.16 0.32 0.36 l0 25.64 c0 0.2 -0.12 0.36 -0.32 0.36 l-4.56 0 c-0.2 0 -0.36 -0.16 -0.36 -0.36 l0 -19.44 l-2.48 2.64 c-0.2 0.2 -0.6 0.08 -0.6 -0.24 l0 -4.48 c0 -0.12 0.04 -0.16 0.04 -0.2 z M145.095 18.52 c-0.24 0.24 0.16 0.52 0.36 0.32 l2.52 -2.64 c0.2 -0.2 0.56 -0.04 0.56 0.24 l0 21.08 c0 0.32 0.52 0.32 0.52 0 l0 -21.08 c0 -0.64 -0.92 -1.2 -1.4 -0.6 z"></path></g><g id="SvgjsG126033" featureKey="sloganFeature-0" transform="matrix(1.017361491645758,0,0,1.017361491645758,77.79652716804351,209.89583105012545)" fill="url(#SvgjsLinearGradient126045)"><path d="M9.8 20 l-0.82 -3.2 l-4.74 0 l-0.84 3.2 l-3.2 0 l3.64 -14 l5.56 0 l3.6 14 l-3.2 0 z M5.08 13.6 l3.1 0 l-1.28 -5 l-0.52 0 z M20.73 20 l-1.74 -4.2 l-2.98 0 l0 4.2 l-3.2 0 l0 -14 l8.22 0 l2.98 2.98 l0 3.84 l-2.04 2.04 l2.14 5.14 l-3.38 0 z M16.009999999999998 9.2 l0 3.4 l3.58 0 l1.22 -1.22 l0 -0.96 l-1.22 -1.22 l-3.58 0 z M27.520000000000003 16.8 l7.9 0 l0 3.2 l-11.1 0 l0 -14 l10.88 0 l0 3.2 l-7.68 0 l0 2 l7.26 0 l0 3.2 l-7.26 0 l0 2.4 z M52.68000000000001 6 l3.32 0 l-5.02 14 l-6.24 0 l0 -3.2 l4.06 0 l0.86 -2.4 l-4.92 0 l0 -8.4 l3.2 0 l0 5.2 l2.88 0 z M57.71000000000001 20 l-2.4 -3.06 l0 -7.88 l2.4 -3.06 l7.4 0 l2.4 3.06 l0 7.88 l-2.4 3.06 l-7.4 0 z M59.470000000000006 16.8 l3.88 0 l0.96 -1.14 l0 -5.32 l-0.96 -1.14 l-3.88 0 l-0.96 1.14 l0 5.32 z M70.12 20 l-2.4 -3.06 l0 -10.94 l3.2 0 l0 9.06 l1.36 1.74 l2.68 0 l1.36 -1.74 l0 -9.06 l3.2 0 l0 10.94 l-2.4 3.06 l-7 0 z M99.76 6 l0 2.6 l-4.04 0 l0 11.4 l-3.2 0 l0 -11.4 l-4.08 0 l0 -2.6 l11.32 0 z M108.17 6 l3.2 0 l0 14 l-3.2 0 l0 -5.6 l-5.2 0 l0 5.6 l-3.2 0 l0 -14 l3.2 0 l0 5.2 l5.2 0 l0 -5.2 z M115.08 16.8 l7.9 0 l0 3.2 l-11.1 0 l0 -14 l10.88 0 l0 3.2 l-7.68 0 l0 2 l7.26 0 l0 3.2 l-7.26 0 l0 2.4 z M132.3 20 l0 -3.2 l3.2 0 l0 3.2 l-3.2 0 z M144.92000000000002 20 l0 -3.2 l3.2 0 l0 3.2 l-3.2 0 z M157.54000000000002 20 l0 -3.2 l3.2 0 l0 3.2 l-3.2 0 z M173.28000000000003 16 l0 -2.58 l4.58 -2.48 l0 -1.2 l-0.9 -1.14 l-7.1 0 l0 -2.6 l8.66 0 l2.54 3.06 l0 3.12 l-4.58 2.48 l0 1.34 l-3.2 0 z M173.24 20 l0 -3.2 l3.24 0 l0 3.2 l-3.24 0 z"></path></g>
			</g>
		</svg>
	