<svg width="18" height="19" viewBox="0 0 18 19" fill="none" xmlns="http://www.w3.org/2000/svg">
<path d="M9 13.0625C8.7 13.0625 8.4 13.04 8.115 12.9875C6.525 12.755 5.0775 11.84 4.1625 10.4825C3.525 9.5225 3.1875 8.405 3.1875 7.25C3.1875 4.0475 5.7975 1.4375 9 1.4375C12.2025 1.4375 14.8125 4.0475 14.8125 7.25C14.8125 8.405 14.475 9.5225 13.8375 10.4825C12.915 11.8475 11.4675 12.755 9.8625 12.995C9.6 13.04 9.3 13.0625 9 13.0625ZM9 2.5625C6.4125 2.5625 4.3125 4.6625 4.3125 7.25C4.3125 8.1875 4.5825 9.0875 5.0925 9.8525C5.835 10.9475 6.9975 11.6825 8.2875 11.87C8.7675 11.9525 9.24 11.9525 9.6825 11.87C10.995 11.6825 12.1575 10.94 12.9 9.84499C13.41 9.07999 13.68 8.17999 13.68 7.24249C13.6875 4.66249 11.5875 2.5625 9 2.5625Z" fill="#ECDDFF"/>
<path d="M4.85236 17.4425C4.74736 17.4425 4.64986 17.4275 4.54486 17.405C4.05736 17.2925 3.68236 16.9175 3.56986 16.43L3.30736 15.3275C3.29236 15.26 3.23986 15.2075 3.16486 15.185L1.92736 14.8925C1.46236 14.78 1.09486 14.435 0.967363 13.9775C0.839863 13.52 0.967363 13.025 1.30486 12.6875L4.22986 9.76248C4.34986 9.64248 4.51486 9.58248 4.67986 9.59748C4.84486 9.61248 4.99486 9.70247 5.09236 9.84497C5.83486 10.94 6.99736 11.6825 8.29486 11.87C8.77486 11.9525 9.24736 11.9525 9.68986 11.87C11.0024 11.6825 12.1649 10.94 12.9074 9.84497C12.9974 9.70247 13.1549 9.61248 13.3199 9.59748C13.4849 9.58248 13.6499 9.64248 13.7699 9.76248L16.6949 12.6875C17.0324 13.025 17.1599 13.52 17.0324 13.9775C16.9049 14.435 16.5299 14.7875 16.0724 14.8925L14.8349 15.185C14.7674 15.2 14.7149 15.2525 14.6924 15.3275L14.4299 16.43C14.3174 16.9175 13.9424 17.2925 13.4549 17.405C12.9674 17.525 12.4649 17.3525 12.1499 16.97L8.99986 13.3475L5.84986 16.9775C5.59486 17.2775 5.23486 17.4425 4.85236 17.4425ZM4.56736 11.0225L2.09986 13.49C2.03236 13.5575 2.03986 13.6325 2.05486 13.6775C2.06236 13.715 2.09986 13.79 2.18986 13.805L3.42736 14.0975C3.91486 14.21 4.28986 14.585 4.40236 15.0725L4.66486 16.175C4.68736 16.2725 4.76236 16.3025 4.80736 16.3175C4.85236 16.325 4.92736 16.3325 4.99486 16.2575L7.86736 12.95C6.59236 12.7025 5.42236 12.02 4.56736 11.0225ZM10.1324 12.9425L13.0049 16.2425C13.0724 16.325 13.1549 16.325 13.1999 16.31C13.2449 16.3025 13.3124 16.265 13.3424 16.1675L13.6049 15.065C13.7174 14.5775 14.0924 14.2025 14.5799 14.09L15.8174 13.7975C15.9074 13.775 15.9449 13.7075 15.9524 13.67C15.9674 13.6325 15.9749 13.55 15.9074 13.4825L13.4399 11.015C12.5774 12.0125 11.4149 12.695 10.1324 12.9425Z" fill="#ECDDFF"/>
<path d="M10.4176 10.1674C10.2226 10.1674 9.99011 10.1149 9.71261 9.94994L9.00011 9.52244L8.28761 9.94244C7.63511 10.3324 7.20761 10.1074 7.05011 9.99494C6.89261 9.88244 6.55511 9.54494 6.72761 8.80244L6.90761 8.02995L6.30761 7.47493C5.97761 7.14493 5.85761 6.74744 5.97011 6.38744C6.08261 6.02744 6.41261 5.77243 6.87761 5.69743L7.68011 5.56244L8.06261 4.72244C8.28011 4.29494 8.61761 4.05493 9.00011 4.05493C9.38261 4.05493 9.72761 4.30245 9.93761 4.72995L10.3801 5.61494L11.1226 5.70494C11.5801 5.77994 11.9101 6.03493 12.0301 6.39493C12.1426 6.75493 12.0226 7.15244 11.6926 7.48244L11.0701 8.10495L11.2651 8.80244C11.4376 9.54494 11.1001 9.88244 10.9426 9.99494C10.8601 10.0624 10.6801 10.1674 10.4176 10.1674ZM7.20761 6.79245L7.72511 7.30993C7.96511 7.54993 8.08511 7.95494 8.01011 8.28494L7.86761 8.88493L8.46761 8.53243C8.79011 8.34493 9.22511 8.34493 9.54011 8.53243L10.1401 8.88493L10.0051 8.28494C9.93011 7.94744 10.0426 7.54993 10.2826 7.30993L10.8001 6.79245L10.1476 6.67993C9.83261 6.62743 9.51761 6.39495 9.37511 6.10995L9.00011 5.37494L8.62511 6.12494C8.49011 6.40244 8.17511 6.64245 7.86011 6.69495L7.20761 6.79245Z" fill="#ECDDFF"/>
</svg>
