<svg width="56" height="43" viewBox="0 0 56 43" fill="none" xmlns="http://www.w3.org/2000/svg">
<path d="M37.1233 27.1366L48.0667 27.1366C47.88 16.24 45.7333 14.4433 39.0367 10.4766C38.2667 10.01 38.01 9.02998 38.4767 8.23664C38.9433 7.46664 39.9233 7.20998 40.7167 7.67664C48.6033 12.3433 51.3567 15.19 51.3567 28.77L51.3567 41.3466C51.3567 45.3366 48.1133 48.5566 44.1467 48.5566L37.1467 48.5566C33.04 48.5566 29.9367 45.4533 29.9367 41.3466L29.9367 34.3466C29.9133 30.24 33.0167 27.1366 37.1233 27.1366Z" fill="#ECDDFF" fill-opacity="0.08"/>
<path d="M11.8766 27.1366L22.82 27.1366C22.6333 16.24 20.4866 14.4433 13.79 10.4766C13.02 10.01 12.7633 9.02998 13.23 8.23664C13.6966 7.46664 14.6766 7.20998 15.47 7.67664C23.3566 12.3433 26.11 15.19 26.11 28.77L26.11 41.3466C26.11 45.3366 22.8666 48.5566 18.9 48.5566L11.9 48.5566C7.76996 48.5566 4.66663 45.4533 4.66663 41.3466L4.66663 34.3466C4.66663 30.24 7.76996 27.1366 11.8766 27.1366Z" fill="#ECDDFF" fill-opacity="0.08"/>
</svg>
