<svg width="18" height="18" viewBox="0 0 18 18" fill="none" xmlns="http://www.w3.org/2000/svg">
<path d="M15.0117 6.50391V2.98828H11.4961L9 0.527344L6.50391 2.98828H2.98828V6.50391L0.527344 9L2.98828 11.4961V15.0117H6.50391L9 17.4727L11.4961 15.0117H15.0117V11.4961L17.4727 9L15.0117 6.50391ZM13.5 10.8633V13.5H10.8633L9 15.3633L7.13672 13.5H4.5V10.8633L2.63672 9L4.5 7.13672V4.5H7.13672L9 2.63672L10.8633 4.5H13.5V7.13672L15.3633 9L13.5 10.8633ZM9 4.88672C6.71484 4.88672 4.88672 6.71484 4.88672 9C4.88672 11.2852 6.71484 13.1133 9 13.1133C11.2852 13.1133 13.1133 11.2852 13.1133 9C13.1133 6.71484 11.2852 4.88672 9 4.88672ZM9 11.6367C7.55859 11.6367 6.36328 10.4414 6.36328 9C6.36328 7.55859 7.55859 6.36328 9 6.36328C10.4414 6.36328 11.6367 7.55859 11.6367 9C11.6367 10.4414 10.4414 11.6367 9 11.6367Z" fill="#D0DCE7"/>
</svg>
