<svg width="24" height="24" viewBox="0 0 24 24" fill="none" xmlns="http://www.w3.org/2000/svg">
<path d="M14.54 11.37C13.1 11.37 11.93 10.2 11.93 8.76001V4.11999C11.93 2.67999 13.1 1.51001 14.54 1.51001C15.98 1.51001 17.15 2.67999 17.15 4.11999V8.76001C17.15 10.2 15.98 11.37 14.54 11.37ZM14.54 3.01001C13.93 3.01001 13.43 3.50999 13.43 4.11999V8.76001C13.43 9.37001 13.93 9.86999 14.54 9.86999C15.15 9.86999 15.65 9.37001 15.65 8.76001V4.11999C15.65 3.50999 15.15 3.01001 14.54 3.01001Z" fill="#D0DCE7"/>
<path d="M20.18 11.37H18.61C18.2 11.37 17.86 11.03 17.86 10.62V9.04996C17.86 7.76996 18.9 6.72998 20.18 6.72998C21.46 6.72998 22.5 7.76996 22.5 9.04996C22.5 10.33 21.46 11.37 20.18 11.37ZM19.37 9.86996H20.19C20.64 9.86996 21.01 9.49996 21.01 9.04996C21.01 8.59996 20.64 8.22998 20.19 8.22998C19.74 8.22998 19.37 8.59996 19.37 9.04996V9.86996Z" fill="#D0DCE7"/>
<path d="M8.5 11.8299H3.86C2.42 11.8299 1.25 10.6599 1.25 9.21988C1.25 7.77988 2.42 6.60986 3.86 6.60986H8.5C9.94 6.60986 11.11 7.77988 11.11 9.21988C11.11 10.6599 9.94 11.8299 8.5 11.8299ZM3.86 8.11987C3.25 8.11987 2.75 8.61989 2.75 9.22989C2.75 9.83989 3.25 10.3399 3.86 10.3399H8.5C9.11 10.3399 9.61 9.83989 9.61 9.22989C9.61 8.61989 9.11 8.11987 8.5 8.11987H3.86Z" fill="#D0DCE7"/>
<path d="M10.36 5.88001H8.78999C7.50999 5.88001 6.47 4.84 6.47 3.56C6.47 2.28 7.50999 1.23999 8.78999 1.23999C10.07 1.23999 11.11 2.28 11.11 3.56V5.13001C11.11 5.55001 10.77 5.88001 10.36 5.88001ZM8.78999 2.75C8.33999 2.75 7.97 3.12001 7.97 3.57001C7.97 4.02001 8.33999 4.39002 8.78999 4.39002H9.61V3.57001C9.61 3.12001 9.23999 2.75 8.78999 2.75Z" fill="#D0DCE7"/>
<path d="M9.42999 22.5199C7.98999 22.5199 6.82001 21.3499 6.82001 19.9099V15.2699C6.82001 13.8299 7.98999 12.6599 9.42999 12.6599C10.87 12.6599 12.04 13.8299 12.04 15.2699V19.9099C12.04 21.3499 10.87 22.5199 9.42999 22.5199ZM9.42999 14.1599C8.81999 14.1599 8.32001 14.6599 8.32001 15.2699V19.9099C8.32001 20.5199 8.81999 21.0199 9.42999 21.0199C10.04 21.0199 10.54 20.5199 10.54 19.9099V15.2699C10.54 14.6499 10.04 14.1599 9.42999 14.1599Z" fill="#D0DCE7"/>
<path d="M3.78999 17.2899C2.50999 17.2899 1.47 16.2499 1.47 14.9699C1.47 13.6899 2.50999 12.6499 3.78999 12.6499H5.36C5.77 12.6499 6.11 12.9899 6.11 13.3999V14.9699C6.11 16.2499 5.06999 17.2899 3.78999 17.2899ZM3.78999 14.1599C3.33999 14.1599 2.97 14.5299 2.97 14.9799C2.97 15.4299 3.33999 15.7999 3.78999 15.7999C4.23999 15.7999 4.61 15.4299 4.61 14.9799V14.1599H3.78999Z" fill="#D0DCE7"/>
<path d="M20.11 17.4099H15.47C14.03 17.4099 12.86 16.2399 12.86 14.7999C12.86 13.3599 14.03 12.1899 15.47 12.1899H20.11C21.55 12.1899 22.72 13.3599 22.72 14.7999C22.72 16.2399 21.55 17.4099 20.11 17.4099ZM15.47 13.6899C14.86 13.6899 14.36 14.1899 14.36 14.7999C14.36 15.4099 14.86 15.9099 15.47 15.9099H20.11C20.72 15.9099 21.22 15.4099 21.22 14.7999C21.22 14.1899 20.72 13.6899 20.11 13.6899H15.47Z" fill="#D0DCE7"/>
<path d="M15.18 22.7301C13.9 22.7301 12.86 21.6901 12.86 20.4101V18.8401C12.86 18.4301 13.2 18.0901 13.61 18.0901H15.18C16.46 18.0901 17.5 19.1301 17.5 20.4101C17.5 21.6901 16.45 22.7301 15.18 22.7301ZM14.36 19.5901V20.4101C14.36 20.8601 14.73 21.2301 15.18 21.2301C15.63 21.2301 16 20.8601 16 20.4101C16 19.9601 15.63 19.5901 15.18 19.5901H14.36Z" fill="#D0DCE7"/>
</svg>
