<svg width="24" height="24" viewBox="0 0 24 24" fill="none" xmlns="http://www.w3.org/2000/svg">
<path d="M17 20.75H7C3.56 20.75 1.25 18.44 1.25 15V9C1.25 5.56 3.56 3.25 7 3.25H17C20.44 3.25 22.75 5.56 22.75 9V15C22.75 18.44 20.44 20.75 17 20.75ZM7 4.75C4.42 4.75 2.75 6.42 2.75 9V15C2.75 17.58 4.42 19.25 7 19.25H17C19.58 19.25 21.25 17.58 21.25 15V9C21.25 6.42 19.58 4.75 17 4.75H7Z" fill="#D0DCE7"/>
<path d="M10.59 15.53C10.3 15.53 10.02 15.46 9.77002 15.32C9.19002 14.99 8.84998 14.32 8.84998 13.49V10.53C8.84998 9.69997 9.18002 9.02999 9.77002 8.69999C10.35 8.36999 11.1 8.42996 11.81 8.85996L14.28 10.34C14.96 10.75 15.35 11.36 15.35 12.01C15.35 12.66 14.96 13.27 14.28 13.68L11.81 15.16C11.4 15.4 10.98 15.53 10.59 15.53ZM10.59 9.96998C10.55 9.96998 10.52 9.97996 10.5 9.98996C10.43 10.03 10.35 10.21 10.35 10.52V13.48C10.35 13.78 10.43 13.96 10.5 14.01C10.58 14.05 10.77 14.03 11.03 13.87L13.5 12.39C13.75 12.24 13.84 12.09 13.84 12C13.84 11.91 13.75 11.77 13.5 11.61L11.03 10.13C10.85 10.02 10.69 9.96998 10.59 9.96998Z" fill="#D0DCE7"/>
</svg>
