<svg width="18" height="19" viewBox="0 0 18 19" fill="none" xmlns="http://www.w3.org/2000/svg">
<path d="M6 4.8125C5.6925 4.8125 5.4375 4.5575 5.4375 4.25V2C5.4375 1.6925 5.6925 1.4375 6 1.4375C6.3075 1.4375 6.5625 1.6925 6.5625 2V4.25C6.5625 4.5575 6.3075 4.8125 6 4.8125Z" fill="#ECDDFF"/>
<path d="M12 4.8125C11.6925 4.8125 11.4375 4.5575 11.4375 4.25V2C11.4375 1.6925 11.6925 1.4375 12 1.4375C12.3075 1.4375 12.5625 1.6925 12.5625 2V4.25C12.5625 4.5575 12.3075 4.8125 12 4.8125Z" fill="#ECDDFF"/>
<path d="M6.375 11.375C6.2775 11.375 6.18 11.3525 6.09 11.315C5.9925 11.2775 5.9175 11.225 5.8425 11.1575C5.7075 11.015 5.625 10.8275 5.625 10.625C5.625 10.5275 5.6475 10.43 5.685 10.34C5.7225 10.25 5.775 10.1675 5.8425 10.0925C5.9175 10.025 5.9925 9.97248 6.09 9.93498C6.36 9.82248 6.6975 9.8825 6.9075 10.0925C7.0425 10.235 7.125 10.43 7.125 10.625C7.125 10.67 7.1175 10.7225 7.11 10.775C7.1025 10.82 7.0875 10.865 7.065 10.91C7.05 10.955 7.0275 11 6.9975 11.045C6.975 11.0825 6.9375 11.12 6.9075 11.1575C6.765 11.2925 6.57 11.375 6.375 11.375Z" fill="#ECDDFF"/>
<path d="M9 11.375C8.9025 11.375 8.805 11.3525 8.715 11.315C8.6175 11.2775 8.5425 11.225 8.4675 11.1575C8.3325 11.015 8.25 10.8275 8.25 10.625C8.25 10.5275 8.2725 10.43 8.31 10.34C8.3475 10.25 8.4 10.1675 8.4675 10.0925C8.5425 10.025 8.6175 9.97252 8.715 9.93502C8.985 9.81502 9.3225 9.88253 9.5325 10.0925C9.6675 10.235 9.75 10.43 9.75 10.625C9.75 10.67 9.7425 10.7225 9.735 10.775C9.7275 10.82 9.7125 10.865 9.69 10.91C9.675 10.955 9.6525 11 9.6225 11.045C9.6 11.0825 9.5625 11.12 9.5325 11.1575C9.39 11.2925 9.195 11.375 9 11.375Z" fill="#ECDDFF"/>
<path d="M11.625 11.375C11.5275 11.375 11.43 11.3525 11.34 11.315C11.2425 11.2775 11.1675 11.225 11.0925 11.1575C11.0625 11.12 11.0325 11.0825 11.0025 11.045C10.9725 11 10.95 10.955 10.935 10.91C10.9125 10.865 10.8975 10.82 10.89 10.775C10.8825 10.7225 10.875 10.67 10.875 10.625C10.875 10.43 10.9575 10.235 11.0925 10.0925C11.1675 10.025 11.2425 9.97252 11.34 9.93502C11.6175 9.81502 11.9475 9.88253 12.1575 10.0925C12.2925 10.235 12.375 10.43 12.375 10.625C12.375 10.67 12.3675 10.7225 12.36 10.775C12.3525 10.82 12.3375 10.865 12.315 10.91C12.3 10.955 12.2775 11 12.2475 11.045C12.225 11.0825 12.1875 11.12 12.1575 11.1575C12.015 11.2925 11.82 11.375 11.625 11.375Z" fill="#ECDDFF"/>
<path d="M6.375 14C6.2775 14 6.18 13.9775 6.09 13.94C6 13.9025 5.9175 13.85 5.8425 13.7825C5.7075 13.64 5.625 13.445 5.625 13.25C5.625 13.1525 5.6475 13.055 5.685 12.965C5.7225 12.8675 5.775 12.785 5.8425 12.7175C6.12 12.44 6.63 12.44 6.9075 12.7175C7.0425 12.86 7.125 13.055 7.125 13.25C7.125 13.445 7.0425 13.64 6.9075 13.7825C6.765 13.9175 6.57 14 6.375 14Z" fill="#ECDDFF"/>
<path d="M9 14C8.805 14 8.61 13.9175 8.4675 13.7825C8.3325 13.64 8.25 13.445 8.25 13.25C8.25 13.1525 8.2725 13.055 8.31 12.965C8.3475 12.8675 8.4 12.785 8.4675 12.7175C8.745 12.44 9.255 12.44 9.5325 12.7175C9.6 12.785 9.6525 12.8675 9.69 12.965C9.7275 13.055 9.75 13.1525 9.75 13.25C9.75 13.445 9.6675 13.64 9.5325 13.7825C9.39 13.9175 9.195 14 9 14Z" fill="#ECDDFF"/>
<path d="M11.625 14.0001C11.43 14.0001 11.235 13.9176 11.0925 13.7826C11.025 13.7151 10.9725 13.6326 10.935 13.5351C10.8975 13.4451 10.875 13.3476 10.875 13.2501C10.875 13.1526 10.8975 13.0551 10.935 12.9651C10.9725 12.8676 11.025 12.7851 11.0925 12.7176C11.265 12.5451 11.5275 12.4625 11.7675 12.515C11.82 12.5225 11.865 12.5375 11.91 12.56C11.955 12.575 12 12.5976 12.045 12.6276C12.0825 12.6501 12.12 12.6876 12.1575 12.7176C12.2925 12.8601 12.375 13.0551 12.375 13.2501C12.375 13.4451 12.2925 13.6401 12.1575 13.7826C12.015 13.9176 11.82 14.0001 11.625 14.0001Z" fill="#ECDDFF"/>
<path d="M15.375 7.88H2.625C2.3175 7.88 2.0625 7.625 2.0625 7.3175C2.0625 7.01 2.3175 6.755 2.625 6.755H15.375C15.6825 6.755 15.9375 7.01 15.9375 7.3175C15.9375 7.625 15.6825 7.88 15.375 7.88Z" fill="#ECDDFF"/>
<path d="M12 17.5625H6C3.2625 17.5625 1.6875 15.9875 1.6875 13.25V6.875C1.6875 4.1375 3.2625 2.5625 6 2.5625H12C14.7375 2.5625 16.3125 4.1375 16.3125 6.875V13.25C16.3125 15.9875 14.7375 17.5625 12 17.5625ZM6 3.6875C3.855 3.6875 2.8125 4.73 2.8125 6.875V13.25C2.8125 15.395 3.855 16.4375 6 16.4375H12C14.145 16.4375 15.1875 15.395 15.1875 13.25V6.875C15.1875 4.73 14.145 3.6875 12 3.6875H6Z" fill="#ECDDFF"/>
</svg>
