<svg width="18" height="19" viewBox="0 0 18 19" fill="none" xmlns="http://www.w3.org/2000/svg">
<path d="M10.0501 13.5651H8.16762C6.93762 13.5651 5.94012 12.5301 5.94012 11.2551C5.94012 10.9476 6.19512 10.6926 6.50262 10.6926C6.81012 10.6926 7.06512 10.9476 7.06512 11.2551C7.06512 11.9076 7.56012 12.4401 8.16762 12.4401H10.0501C10.5376 12.4401 10.9426 12.0051 10.9426 11.4801C10.9426 10.8276 10.7101 10.7001 10.3276 10.5651L7.30512 9.50006C6.72012 9.29756 5.93262 8.86256 5.93262 7.52006C5.93262 6.36506 6.84012 5.43506 7.95012 5.43506H9.83262C11.0626 5.43506 12.0601 6.47006 12.0601 7.74506C12.0601 8.05256 11.8051 8.30756 11.4976 8.30756C11.1901 8.30756 10.9351 8.05256 10.9351 7.74506C10.9351 7.09256 10.4401 6.56006 9.83262 6.56006H7.95012C7.46262 6.56006 7.05762 6.99506 7.05762 7.52006C7.05762 8.17256 7.29012 8.30006 7.67262 8.43506L10.6951 9.50006C11.2801 9.70256 12.0676 10.1376 12.0676 11.4801C12.0601 12.6276 11.1601 13.5651 10.0501 13.5651Z" fill="#ECDDFF"/>
<path d="M9 14.5625C8.6925 14.5625 8.4375 14.3075 8.4375 14V5C8.4375 4.6925 8.6925 4.4375 9 4.4375C9.3075 4.4375 9.5625 4.6925 9.5625 5V14C9.5625 14.3075 9.3075 14.5625 9 14.5625Z" fill="#ECDDFF"/>
<path d="M11.25 17.5625H6.75C2.6775 17.5625 0.9375 15.8225 0.9375 11.75V7.25C0.9375 3.1775 2.6775 1.4375 6.75 1.4375H11.25C15.3225 1.4375 17.0625 3.1775 17.0625 7.25V11.75C17.0625 15.8225 15.3225 17.5625 11.25 17.5625ZM6.75 2.5625C3.2925 2.5625 2.0625 3.7925 2.0625 7.25V11.75C2.0625 15.2075 3.2925 16.4375 6.75 16.4375H11.25C14.7075 16.4375 15.9375 15.2075 15.9375 11.75V7.25C15.9375 3.7925 14.7075 2.5625 11.25 2.5625H6.75Z" fill="#ECDDFF"/>
</svg>
