<svg width="18" height="19" viewBox="0 0 18 19" fill="none" xmlns="http://www.w3.org/2000/svg">
<path d="M11.25 17.5625H6.75C2.6775 17.5625 0.9375 15.8225 0.9375 11.75V7.25C0.9375 3.1775 2.6775 1.4375 6.75 1.4375H11.25C15.3225 1.4375 17.0625 3.1775 17.0625 7.25V11.75C17.0625 15.8225 15.3225 17.5625 11.25 17.5625ZM6.75 2.5625C3.2925 2.5625 2.0625 3.7925 2.0625 7.25V11.75C2.0625 15.2075 3.2925 16.4375 6.75 16.4375H11.25C14.7075 16.4375 15.9375 15.2075 15.9375 11.75V7.25C15.9375 3.7925 14.7075 2.5625 11.25 2.5625H6.75Z" fill="#ECDDFF"/>
<path d="M5.2499 7.72252C5.0474 7.72252 4.8449 7.61002 4.7474 7.41502C4.6049 7.13752 4.7174 6.80001 4.9949 6.65751C7.4999 5.40501 10.4924 5.40501 12.9974 6.65751C13.2749 6.80001 13.3874 7.13752 13.2524 7.41502C13.1099 7.69252 12.7799 7.80502 12.4949 7.67002C10.3049 6.57502 7.6874 6.57502 5.4974 7.67002C5.4224 7.70752 5.3324 7.72252 5.2499 7.72252Z" fill="#ECDDFF"/>
<path d="M9 13.28C8.6925 13.28 8.4375 13.025 8.4375 12.7175V6.44751C8.4375 6.14001 8.6925 5.88501 9 5.88501C9.3075 5.88501 9.5625 6.14001 9.5625 6.44751V12.725C9.5625 13.0325 9.3075 13.28 9 13.28Z" fill="#ECDDFF"/>
</svg>
