<svg width="18" height="19" viewBox="0 0 18 19" fill="none" xmlns="http://www.w3.org/2000/svg">
<path d="M8.9998 16.5497C8.2948 16.5497 7.5898 16.3097 7.0573 15.8222L1.85979 11.1047C0.952292 10.2797 0.667292 8.77215 1.21479 7.67715L3.0148 4.06215C3.4648 3.16215 4.5973 2.45715 5.6023 2.45715H12.3973C13.4023 2.45715 14.5348 3.16215 14.9848 4.06215L16.7848 7.67715C17.3323 8.77215 17.0473 10.2797 16.1398 11.1047L10.9423 15.8222C10.4098 16.3022 9.7048 16.5497 8.9998 16.5497ZM5.6023 3.57465C5.0173 3.57465 4.2823 4.03215 4.0198 4.55715L2.2198 8.17215C1.9048 8.80965 2.0848 9.78465 2.6173 10.2647L7.81479 14.9822C8.45979 15.5672 9.5473 15.5672 10.1848 14.9822L15.3823 10.2647C15.9073 9.78465 16.0948 8.80965 15.7798 8.17215L13.9798 4.55715C13.7173 4.03965 12.9823 3.58215 12.3973 3.58215H5.6023V3.57465Z" fill="#ECDDFF"/>
<path d="M9 11.9376C8.6925 11.9376 8.4375 11.6826 8.4375 11.3751V6.87512C8.4375 6.56762 8.6925 6.31262 9 6.31262C9.3075 6.31262 9.5625 6.56762 9.5625 6.87512V11.3751C9.5625 11.6826 9.3075 11.9376 9 11.9376Z" fill="#ECDDFF"/>
<path d="M12 7.43762H6C5.6925 7.43762 5.4375 7.18262 5.4375 6.87512C5.4375 6.56762 5.6925 6.31262 6 6.31262H12C12.3075 6.31262 12.5625 6.56762 12.5625 6.87512C12.5625 7.18262 12.3075 7.43762 12 7.43762Z" fill="#ECDDFF"/>
</svg>
