<svg width="18" height="19" viewBox="0 0 18 19" fill="none" xmlns="http://www.w3.org/2000/svg">
<path d="M9 13.0625C8.7 13.0625 8.4 13.04 8.115 12.9875C6.525 12.755 5.0775 11.84 4.1625 10.4825C3.525 9.5225 3.1875 8.405 3.1875 7.25C3.1875 4.0475 5.7975 1.4375 9 1.4375C12.2025 1.4375 14.8125 4.0475 14.8125 7.25C14.8125 8.405 14.475 9.5225 13.8375 10.4825C12.915 11.8475 11.4675 12.755 9.8625 12.995C9.6 13.04 9.3 13.0625 9 13.0625ZM9 2.5625C6.4125 2.5625 4.3125 4.6625 4.3125 7.25C4.3125 8.1875 4.5825 9.0875 5.0925 9.8525C5.835 10.9475 6.9975 11.6825 8.2875 11.87C8.7675 11.9525 9.24 11.9525 9.6825 11.87C10.995 11.6825 12.1575 10.94 12.9 9.84499C13.41 9.07999 13.68 8.17999 13.68 7.24249C13.6875 4.66249 11.5875 2.5625 9 2.5625Z" fill="#ECDDFF"/>
<path d="M4.85224 17.4425C4.74724 17.4425 4.64974 17.4275 4.54474 17.405C4.05724 17.2925 3.68224 16.9175 3.56974 16.43L3.30724 15.3275C3.29224 15.26 3.23974 15.2075 3.16474 15.185L1.92724 14.8925C1.46224 14.78 1.09474 14.435 0.967241 13.9775C0.839741 13.52 0.967241 13.025 1.30474 12.6875L4.22974 9.76248C4.34974 9.64248 4.51474 9.58248 4.67974 9.59748C4.84474 9.61248 4.99474 9.70247 5.09224 9.84497C5.83474 10.94 6.99724 11.6825 8.29474 11.87C8.77474 11.9525 9.24724 11.9525 9.68974 11.87C11.0022 11.6825 12.1647 10.94 12.9072 9.84497C12.9972 9.70247 13.1547 9.61248 13.3197 9.59748C13.4847 9.58248 13.6497 9.64248 13.7697 9.76248L16.6947 12.6875C17.0322 13.025 17.1597 13.52 17.0322 13.9775C16.9047 14.435 16.5297 14.7875 16.0722 14.8925L14.8347 15.185C14.7672 15.2 14.7147 15.2525 14.6922 15.3275L14.4297 16.43C14.3172 16.9175 13.9422 17.2925 13.4547 17.405C12.9672 17.525 12.4647 17.3525 12.1497 16.97L8.99974 13.3475L5.84974 16.9775C5.59474 17.2775 5.23474 17.4425 4.85224 17.4425ZM4.56724 11.0225L2.09974 13.49C2.03224 13.5575 2.03974 13.6325 2.05474 13.6775C2.06224 13.715 2.09974 13.79 2.18974 13.805L3.42724 14.0975C3.91474 14.21 4.28974 14.585 4.40224 15.0725L4.66474 16.175C4.68724 16.2725 4.76224 16.3025 4.80724 16.3175C4.85224 16.325 4.92724 16.3325 4.99474 16.2575L7.86724 12.95C6.59224 12.7025 5.42224 12.02 4.56724 11.0225ZM10.1322 12.9425L13.0047 16.2425C13.0722 16.325 13.1547 16.325 13.1997 16.31C13.2447 16.3025 13.3122 16.265 13.3422 16.1675L13.6047 15.065C13.7172 14.5775 14.0922 14.2025 14.5797 14.09L15.8172 13.7975C15.9072 13.775 15.9447 13.7075 15.9522 13.67C15.9672 13.6325 15.9747 13.55 15.9072 13.4825L13.4397 11.015C12.5772 12.0125 11.4147 12.695 10.1322 12.9425Z" fill="#ECDDFF"/>
<path d="M10.4174 10.1674C10.2224 10.1674 9.98986 10.1149 9.71236 9.94994L8.99986 9.52244L8.28736 9.94244C7.63486 10.3324 7.20736 10.1074 7.04986 9.99494C6.89236 9.88244 6.55486 9.54494 6.72736 8.80244L6.90736 8.02995L6.30736 7.47493C5.97736 7.14493 5.85736 6.74744 5.96986 6.38744C6.08236 6.02744 6.41236 5.77243 6.87736 5.69743L7.67986 5.56244L8.06236 4.72244C8.27986 4.29494 8.61736 4.05493 8.99986 4.05493C9.38236 4.05493 9.72736 4.30245 9.93736 4.72995L10.3799 5.61494L11.1224 5.70494C11.5799 5.77994 11.9099 6.03493 12.0299 6.39493C12.1424 6.75493 12.0224 7.15244 11.6924 7.48244L11.0699 8.10495L11.2649 8.80244C11.4374 9.54494 11.0999 9.88244 10.9424 9.99494C10.8599 10.0624 10.6799 10.1674 10.4174 10.1674ZM7.20736 6.79245L7.72486 7.30993C7.96486 7.54993 8.08486 7.95494 8.00986 8.28494L7.86736 8.88493L8.46736 8.53243C8.78986 8.34493 9.22486 8.34493 9.53986 8.53243L10.1399 8.88493L10.0049 8.28494C9.92986 7.94744 10.0424 7.54993 10.2824 7.30993L10.7999 6.79245L10.1474 6.67993C9.83236 6.62743 9.51736 6.39495 9.37486 6.10995L8.99986 5.37494L8.62486 6.12494C8.48986 6.40244 8.17486 6.64245 7.85986 6.69495L7.20736 6.79245Z" fill="#ECDDFF"/>
</svg>
